<mxfile host="app.diagrams.net" modified="2024-01-27T12:11:27.076Z" agent="Mozilla/5.0 (Windows NT 10.0; Win64; x64) AppleWebKit/537.36 (KHTML, like Gecko) Chrome/121.0.0.0 Safari/537.36" etag="Rc16-kPpb0ik4FrNT1EO" version="23.0.2" type="device">
  <diagram name="Page-1" id="Gt7Xn_VibK85hKQhlHrd">
    <mxGraphModel dx="1434" dy="746" grid="1" gridSize="10" guides="1" tooltips="1" connect="1" arrows="1" fold="1" page="1" pageScale="1" pageWidth="850" pageHeight="1100" math="0" shadow="0">
      <root>
        <mxCell id="0" />
        <mxCell id="1" parent="0" />
        <mxCell id="GuUhl3rqNujyrFn6tY3T-1" value="&lt;font style=&quot;font-size: 16px;&quot;&gt;Principal&lt;/font&gt;" style="shape=umlActor;verticalLabelPosition=bottom;verticalAlign=top;html=1;outlineConnect=0;" parent="1" vertex="1">
          <mxGeometry x="10" y="400" width="120" height="190" as="geometry" />
        </mxCell>
        <mxCell id="GuUhl3rqNujyrFn6tY3T-2" value="&lt;font style=&quot;font-size: 14px;&quot;&gt;Login&lt;/font&gt;" style="ellipse;whiteSpace=wrap;html=1;" parent="1" vertex="1">
          <mxGeometry x="360" y="30" width="220" height="90" as="geometry" />
        </mxCell>
        <mxCell id="GuUhl3rqNujyrFn6tY3T-7" value="&lt;div&gt;&lt;font style=&quot;font-size: 14px;&quot;&gt;Mange TimeTable&lt;/font&gt;&lt;/div&gt;" style="ellipse;whiteSpace=wrap;html=1;" parent="1" vertex="1">
          <mxGeometry x="360" y="690" width="220" height="90" as="geometry" />
        </mxCell>
        <mxCell id="GuUhl3rqNujyrFn6tY3T-8" value="&lt;div&gt;&lt;font style=&quot;font-size: 14px;&quot;&gt;Add Notes&lt;/font&gt;&lt;/div&gt;" style="ellipse;whiteSpace=wrap;html=1;" parent="1" vertex="1">
          <mxGeometry x="360" y="820" width="220" height="90" as="geometry" />
        </mxCell>
        <mxCell id="GuUhl3rqNujyrFn6tY3T-9" value="&lt;div&gt;&lt;font style=&quot;font-size: 14px;&quot;&gt;View Student&lt;/font&gt;&lt;/div&gt;" style="ellipse;whiteSpace=wrap;html=1;" parent="1" vertex="1">
          <mxGeometry x="360" y="560" width="220" height="90" as="geometry" />
        </mxCell>
        <mxCell id="GuUhl3rqNujyrFn6tY3T-10" value="&lt;span style=&quot;font-size: 14px;&quot;&gt;View Teacher&lt;/span&gt;" style="ellipse;whiteSpace=wrap;html=1;" parent="1" vertex="1">
          <mxGeometry x="360" y="420" width="220" height="90" as="geometry" />
        </mxCell>
        <mxCell id="GuUhl3rqNujyrFn6tY3T-11" value="&lt;font style=&quot;font-size: 14px;&quot;&gt;Create Student&lt;/font&gt;" style="ellipse;whiteSpace=wrap;html=1;" parent="1" vertex="1">
          <mxGeometry x="360" y="290" width="220" height="90" as="geometry" />
        </mxCell>
        <mxCell id="GuUhl3rqNujyrFn6tY3T-12" value="&lt;font style=&quot;font-size: 14px;&quot;&gt;Create Teacher&lt;/font&gt;" style="ellipse;whiteSpace=wrap;html=1;" parent="1" vertex="1">
          <mxGeometry x="360" y="160" width="220" height="90" as="geometry" />
        </mxCell>
        <mxCell id="GuUhl3rqNujyrFn6tY3T-15" value="" style="endArrow=classic;html=1;rounded=0;" parent="1" edge="1">
          <mxGeometry width="50" height="50" relative="1" as="geometry">
            <mxPoint x="130" y="470" as="sourcePoint" />
            <mxPoint x="370" y="100" as="targetPoint" />
          </mxGeometry>
        </mxCell>
        <mxCell id="GuUhl3rqNujyrFn6tY3T-16" value="" style="endArrow=classic;html=1;rounded=0;" parent="1" edge="1">
          <mxGeometry width="50" height="50" relative="1" as="geometry">
            <mxPoint x="130" y="470" as="sourcePoint" />
            <mxPoint x="370" y="230" as="targetPoint" />
          </mxGeometry>
        </mxCell>
        <mxCell id="GuUhl3rqNujyrFn6tY3T-17" value="" style="endArrow=classic;html=1;rounded=0;" parent="1" edge="1">
          <mxGeometry width="50" height="50" relative="1" as="geometry">
            <mxPoint x="140" y="460" as="sourcePoint" />
            <mxPoint x="360" y="340" as="targetPoint" />
          </mxGeometry>
        </mxCell>
        <mxCell id="GuUhl3rqNujyrFn6tY3T-18" value="" style="endArrow=classic;html=1;rounded=0;exitX=1;exitY=0.3333333333333333;exitDx=0;exitDy=0;exitPerimeter=0;" parent="1" edge="1" source="GuUhl3rqNujyrFn6tY3T-1">
          <mxGeometry width="50" height="50" relative="1" as="geometry">
            <mxPoint x="140" y="470" as="sourcePoint" />
            <mxPoint x="370" y="480" as="targetPoint" />
          </mxGeometry>
        </mxCell>
        <mxCell id="GuUhl3rqNujyrFn6tY3T-19" value="" style="endArrow=classic;html=1;rounded=0;exitX=1;exitY=0.3333333333333333;exitDx=0;exitDy=0;exitPerimeter=0;" parent="1" source="GuUhl3rqNujyrFn6tY3T-1" edge="1">
          <mxGeometry width="50" height="50" relative="1" as="geometry">
            <mxPoint x="310" y="660" as="sourcePoint" />
            <mxPoint x="360" y="610" as="targetPoint" />
          </mxGeometry>
        </mxCell>
        <mxCell id="GuUhl3rqNujyrFn6tY3T-20" value="" style="endArrow=classic;html=1;rounded=0;" parent="1" edge="1">
          <mxGeometry width="50" height="50" relative="1" as="geometry">
            <mxPoint x="130" y="460" as="sourcePoint" />
            <mxPoint x="360" y="740" as="targetPoint" />
          </mxGeometry>
        </mxCell>
        <mxCell id="GuUhl3rqNujyrFn6tY3T-21" value="" style="endArrow=classic;html=1;rounded=0;" parent="1" edge="1">
          <mxGeometry width="50" height="50" relative="1" as="geometry">
            <mxPoint x="130" y="470" as="sourcePoint" />
            <mxPoint x="360" y="870" as="targetPoint" />
          </mxGeometry>
        </mxCell>
      </root>
    </mxGraphModel>
  </diagram>
</mxfile>
